<svg width="48" height="48" viewBox="0 0 48 48" xmlns="http://www.w3.org/2000/svg">
    <title>calculatrice</title>
    <path
        d="M10.047 0C4.5 0 0 4.5 0 10.047v27.906C0 43.5 4.5 48 10.047 48h27.906C43.5 48 48 43.5 48 37.953V10.047C48 4.5 43.5 0 37.953 0H10.047zm0 2.233h12.837v20.65H2.234V10.048c0-4.348 3.465-7.814 7.813-7.814zm15.07 0h12.836c4.348 0 7.814 3.466 7.814 7.814v12.837h-20.65V2.234zM12.278 6.14c-.618 0-1.117.5-1.117 1.116v3.907H7.256c-.617 0-1.116.5-1.116 1.116 0 .616.5 1.115 1.116 1.115h3.907v3.907c0 .617.5 1.117 1.116 1.117.616 0 1.115-.5 1.115-1.118v-3.907h3.907c.617 0 1.117-.5 1.117-1.116 0-.618-.5-1.117-1.118-1.117h-3.907V7.256c0-.617-.5-1.116-1.116-1.116zm18.418 5.023c-.617 0-1.117.5-1.117 1.116 0 .616.5 1.115 1.118 1.115h10.046c.617 0 1.116-.5 1.116-1.116 0-.618-.5-1.117-1.116-1.117H30.698zM2.233 25.116h20.65v20.65H10.048c-4.348 0-7.814-3.465-7.814-7.813V25.116zm22.883 0h20.65v12.837c0 4.348-3.465 7.814-7.813 7.814H25.116v-20.65zM7.936 30.28c-.285 0-.567.112-.785.33-.435.437-.435 1.134 0 1.57l3.56 3.558-3.56 3.56c-.435.435-.435 1.132 0 1.568.437.436 1.135.436 1.57 0l3.56-3.558 3.557 3.558c.436.436 1.134.436 1.57 0 .436-.436.436-1.133 0-1.57L13.85 35.74l3.557-3.558c.436-.436.436-1.133 0-1.57-.436-.436-1.134-.436-1.57 0l-3.558 3.56-3.56-3.56c-.217-.218-.498-.33-.784-.33zm22.762 1.55c-.617 0-1.117.5-1.117 1.118 0 .617.5 1.116 1.118 1.116h10.046c.617 0 1.116-.5 1.116-1.116 0-.617-.5-1.117-1.116-1.117H30.698zm0 5.583c-.617 0-1.117.5-1.117 1.116 0 .616.5 1.115 1.118 1.115h10.046c.617 0 1.116-.5 1.116-1.116 0-.618-.5-1.117-1.116-1.117H30.698z"
        fill="#B8B8B8" fill-rule="evenodd"/>
</svg>
