<svg width="108" height="110" viewBox="0 0 108 110" xmlns="http://www.w3.org/2000/svg">
    <title>Calendrier</title>
    <path
        d="M25.74 0c-1.293 0-2.34 1.047-2.34 2.34v13.235c-3.36 1.02-5.85 4.145-5.85 7.824 0 4.497 3.693 8.19 8.19 8.19s8.19-3.693 8.19-8.19c0-3.68-2.49-6.806-5.85-7.825V2.34c0-1.293-1.047-2.34-2.34-2.34zM70.2 0c-1.293 0-2.34 1.047-2.34 2.34v13.235c-3.36 1.02-5.85 4.145-5.85 7.824 0 4.497 3.693 8.19 8.19 8.19s8.19-3.693 8.19-8.19c0-3.68-2.49-6.806-5.85-7.825V2.34C72.54 1.047 71.493 0 70.2 0zM11.736 7.02C5.278 7.02 0 12.3 0 18.756v70.128c0 6.458 5.28 11.736 11.736 11.736h60.987c3.254 5.585 9.323 9.36 16.233 9.36 10.31 0 18.684-8.373 18.684-18.684 0-7.842-4.844-14.58-11.7-17.367V18.755c0-6.458-5.28-11.736-11.736-11.736H77.22c-1.234-.018-2.372 1.1-2.372 2.34 0 1.24 1.138 2.358 2.372 2.34h6.984c3.944 0 7.056 3.112 7.056 7.057V35.1H4.68V18.757c0-3.945 3.113-7.057 7.057-7.057h6.983c1.234.018 2.372-1.1 2.372-2.34 0-1.24-1.138-2.358-2.372-2.34h-6.984zm21.024 0c-1.293 0-2.34 1.047-2.34 2.34s1.047 2.34 2.34 2.34h30.42c1.293 0 2.34-1.047 2.34-2.34s-1.047-2.34-2.34-2.34H32.76zm-7.02 12.87c1.965 0 3.51 1.545 3.51 3.51 0 1.965-1.545 3.51-3.51 3.51-1.965 0-3.51-1.545-3.51-3.51 0-1.965 1.545-3.51 3.51-3.51zm44.46 0c1.965 0 3.51 1.545 3.51 3.51 0 1.965-1.545 3.51-3.51 3.51-1.965 0-3.51-1.545-3.51-3.51 0-1.965 1.545-3.51 3.51-3.51zM4.68 39.78h86.58v32.943c-.76-.096-1.517-.183-2.303-.183-10.31 0-18.757 8.446-18.757 18.756 0 1.604.2 3.158.585 4.643H11.737c-3.945 0-7.057-3.113-7.057-7.057V39.78zm84.276 37.44c7.78 0 14.004 6.298 14.004 14.076 0 7.78-6.225 14.004-14.004 14.004-7.78 0-14.04-6.225-14.04-14.004 0-7.78 6.262-14.076 14.04-14.076zm7.97 7.02c-.63.04-1.238.356-1.644.877l-7.97 9.982-6.4-4.57c-.955-.755-2.51-.536-3.253.51-.746 1.047-.554 2.63.547 3.29l8.19 5.85c.978.72 2.44.48 3.18-.438l9.36-11.7c.636-.877.778-2.202-.218-3.144-.513-.475-1.162-.704-1.793-.658z"
        fill="#494949" fill-rule="evenodd"/>
</svg>
