<svg width="28" height="29" viewBox="0 0 28 29" xmlns="http://www.w3.org/2000/svg"><title>en classe</title><g fill-rule="nonzero" fill="#FFF"><path d="M9.42 19.156c0-1.546-1.24-2.804-2.764-2.804-1.523 0-2.762 1.258-2.762 2.804 0 1.546 1.24 2.804 2.762 2.804 1.524 0 2.763-1.258 2.763-2.804zm-3.997 0c0-.69.553-1.252 1.233-1.252s1.234.56 1.234 1.252c0 .69-.553 1.252-1.234 1.252-.68 0-1.233-.56-1.233-1.252zM6.656 22.753c-2.94 0-5.33 2.34-5.43 5.33-.005.21.1.804.77.804h9.326c.664 0 .775-.595.764-.805-.1-2.99-2.49-5.33-5.43-5.33zm-3.79 4.576c.414-1.746 1.95-3.026 3.79-3.026 1.842 0 3.376 1.275 3.79 3.025h-7.58zM21.344 22.753c-2.94 0-5.33 2.34-5.43 5.33-.006.21.1.804.765.804h9.323c.664 0 .776-.595.765-.805-.1-2.99-2.483-5.33-5.424-5.33zm-3.79 4.576c.414-1.746 1.948-3.026 3.79-3.026 1.84 0 3.376 1.275 3.79 3.025h-7.58zM24.106 19.156c0-1.546-1.24-2.804-2.762-2.804-1.524 0-2.763 1.258-2.763 2.804 0 1.546 1.24 2.804 2.764 2.804 1.523 0 2.762-1.258 2.762-2.804zm-3.995 0c0-.69.553-1.252 1.234-1.252.68 0 1.233.56 1.233 1.252 0 .69-.552 1.252-1.233 1.252-.68 0-1.233-.56-1.233-1.252z"/><path d="M27.025.113H.975C.55.113.21.46.21.89c0 .43.34.775.765.775h.252v10.74c0 1.715 1.372 3.11 3.063 3.11h8.94v4.24c-.893.324-1.535 1.185-1.535 2.2 0 1.285 1.033 2.333 2.3 2.333 1.266 0 2.3-1.048 2.3-2.334 0-1.014-.643-1.875-1.536-2.198V15.52h8.94c1.69 0 3.062-1.394 3.062-3.11V1.67h.252c.424 0 .764-.344.764-.775.01-.436-.33-.782-.753-.782zM14 22.736c-.424 0-.765-.352-.765-.776 0-.43.346-.776.765-.776.424 0 .765.35.765.776 0 .424-.34.776-.765.776zM25.24 12.41c0 .855-.688 1.558-1.536 1.558H4.296c-.843 0-1.535-.697-1.535-1.558V1.67h22.48v10.74z"/></g></svg>
