<?xml version="1.0" encoding="UTF-8" standalone="no"?>
<svg width="75px" height="75px" viewBox="0 0 75 75" version="1.1" xmlns="http://www.w3.org/2000/svg" xmlns:xlink="http://www.w3.org/1999/xlink">
    <!-- Generator: Sketch 45 (43475) - http://www.bohemiancoding.com/sketch -->
    <title> ICON</title>
    <desc>Created with Sketch.</desc>
    <defs>
        <circle id="path-1" cx="37.5" cy="37.5" r="37.5"></circle>
    </defs>
    <g id="Page-1" stroke="none" stroke-width="1" fill="none" fill-rule="evenodd">
        <g id="5A---calendrier-1---1" transform="translate(-440.000000, -1704.000000)">
            <g id="Formation-1-Copy-6" transform="translate(425.000000, 1687.000000)">
                <g id="-ICON" transform="translate(15.000000, 17.000000)">
                    <g id="Oval-3-Copy-3">
                        <use fill="#FFFFFF" fill-rule="evenodd" xlink:href="#path-1"></use>
                        <circle stroke="#DCDCDC" stroke-width="3" cx="37.5" cy="37.5" r="36"></circle>
                    </g>
                    <g id="icon---gestion-projets" transform="translate(22.000000, 22.000000)" fill="#0E7CC8">
                        <path d="M25.2114084,1.83710673 C25.3948839,1.65363128 25.7053808,1.65363128 25.8888562,1.83710673 L30.1440753,6.09232579 C30.3251985,6.27580123 30.3251985,6.58629815 30.1440753,6.7697736 L26.4157601,10.4980888 L21.4830932,5.56542193 L25.2114084,1.83710673 Z M27.6154072,11.6953837 L31.3437224,7.96942076 C32.1905322,7.12025875 32.1905322,5.73948839 31.3437224,4.89267862 L27.0908556,0.635107321 C26.2393414,-0.21170244 24.858571,-0.21170244 24.009409,0.635107321 L20.283446,4.36342252 L19.3613643,3.60364599 L4.76095266,18.1640694 C4.76095266,18.1640694 4.88562188,19.5495443 5.37724199,20.0435166 C5.37724199,20.0435166 5.87121435,20.9067921 7.29197295,20.537489 C7.29197295,20.537489 7.16965598,22.7603646 8.27756542,23.7459571 C8.27756542,23.7459571 9.82299324,24.858571 11.613055,24.7315495 C11.613055,24.7315495 11.584828,24.86798 11.5613055,25.0632167 L6.4169362,27.7565422 L0.799764775,22.9955895 L0,32 L14.2146428,26.6721552 L28.4198765,12.5022052 L27.6154072,11.6953837 Z" id="Fill-1"></path>
                    </g>
                </g>
            </g>
        </g>
    </g>
</svg>