<?xml version="1.0" encoding="UTF-8" standalone="no"?>
<svg width="75px" height="75px" viewBox="0 0 75 75" version="1.1" xmlns="http://www.w3.org/2000/svg" xmlns:xlink="http://www.w3.org/1999/xlink">
    <!-- Generator: Sketch 45 (43475) - http://www.bohemiancoding.com/sketch -->
    <title>Icon - Legislatif</title>
    <desc>Created with Sketch.</desc>
    <defs>
        <circle id="path-1" cx="37.5" cy="37.5" r="37.5"></circle>
        <polygon id="path-3" points="45.4655313 15.0039474 0.449500052 15.0039474 0.449500052 0.125336842 45.4655313 0.125336842"></polygon>
    </defs>
    <g id="Page-1" stroke="none" stroke-width="1" fill="none" fill-rule="evenodd">
        <g id="5A---calendrier-1---1" transform="translate(-440.000000, -615.000000)">
            <g id="Formation-1" transform="translate(425.000000, 598.000000)">
                <g id="Icon---Legislatif" transform="translate(15.000000, 17.000000)">
                    <mask id="mask-2" fill="white">
                        <use xlink:href="#path-1"></use>
                    </mask>
                    <g id="Mask">
                        <use fill="#FFFFFF" fill-rule="evenodd" xlink:href="#path-1"></use>
                        <circle stroke="#DCDCDC" stroke-width="3" cx="37.5" cy="37.5" r="36"></circle>
                    </g>
                    <g mask="url(#mask-2)" id="Page-1">
                        <g transform="translate(6.000000, 20.000000)">
                            <g>
                                <g id="Group-3" transform="translate(10.011599, 46.931021)">
                                    <mask id="mask-4" fill="white">
                                        <use xlink:href="#path-3"></use>
                                    </mask>
                                    <g id="Clip-2"></g>
                                    <path d="M44.1428086,5.54996842 L43.5487871,5.54996842 C44.1594946,4.97633684 44.5466098,4.17723158 44.5466098,3.27865263 C44.5466098,1.53454737 43.1216255,0.125336842 41.3729329,0.125336842 L4.36005137,0.125336842 C2.61135874,0.125336842 1.18637448,1.53454737 1.18637448,3.27865263 C1.18637448,4.17723158 1.57682684,4.97633684 2.18419718,5.54996842 L1.59351284,5.54996842 C-1.0395377,5.54996842 1.69696603,7.66875789 1.69696603,10.2782842 C1.69696603,12.8878105 3.81942502,15.0066 6.45581276,15.0066 L39.9179138,15.0066 C42.54429,15.0066 44.6734234,12.8878105 44.6734234,10.2782842 C44.6734234,7.66875789 46.7691848,5.54996842 44.1428086,5.54996842" id="Fill-1" fill="#0E7CC8" mask="url(#mask-4)"></path>
                                </g>
                                <path d="M14.7954747,16.0494158 C13.2470141,14.5108895 13.2470141,12.0141 14.7954747,10.4755737 L24.1796802,1.15488947 C25.7248036,-0.383636842 28.237715,-0.383636842 29.7895128,1.15488947 C31.3312991,2.69341579 31.3312991,5.19020526 29.7895128,6.72541579 L20.4053074,16.0494158 C19.6310771,16.8153632 18.6165684,17.1999947 17.6020597,17.1999947 C16.5842138,17.1999947 15.5697051,16.8153632 14.7954747,16.0494158" id="Fill-4" fill="#0E7CC8"></path>
                                <path d="M34.8333564,35.9604 C33.2848958,34.4185579 33.2848958,31.9284 34.8333564,30.3865579 L44.2175619,21.0658737 C45.7660225,19.5240316 48.2755967,19.5240316 49.8273945,21.0658737 C51.3691808,22.6044 51.3691808,25.1011895 49.8273945,26.6364 L40.4431891,35.9604 C39.6689587,36.7263474 38.65445,37.1109789 37.6366041,37.1109789 C36.6254326,37.1109789 35.6075867,36.7263474 34.8333564,35.9604" id="Fill-6" fill="#0E7CC8"></path>
                                <g id="Group-10" transform="translate(0.000000, 7.929047)" fill="#0E7CC8">
                                    <path d="M42.6711036,9.95632105 L32.8030041,0.154847368 L21.4832229,11.4020053 L23.7024606,13.6070053 L0.0684125932,36.9302684 C-0.645748136,37.6365316 4.42345816,43.7409 5.13428169,43.0379526 L29.3122933,19.1775316 L31.3513223,21.2067947 L42.6711036,9.95632105 Z" id="Fill-8"></path>
                                </g>
                            </g>
                        </g>
                    </g>
                    <circle id="Mask" stroke="#DCDCDC" stroke-width="3" mask="url(#mask-2)" cx="37.5" cy="37.5" r="36"></circle>
                </g>
            </g>
        </g>
    </g>
</svg>