<svg width="94" height="103" viewBox="0 0 94 103" xmlns="http://www.w3.org/2000/svg">
    <title>perfectionnement</title>
    <path
        d="M47.154 1c-1.33 0-2.404 1.075-2.404 2.404V17.83c0 1.328 1.075 2.403 2.404 2.403 1.33 0 2.404-1.075 2.404-2.404V3.403c0-1.33-1.075-2.404-2.404-2.404zm-25.58 4.357c-.31.038-.616.174-.903.34-1.15.66-1.525 2.116-.863 3.267l6.01 10.405c.663 1.15 2.118 1.562 3.27.9 1.15-.662 1.525-2.155.863-3.305L23.94 6.56c-.498-.864-1.437-1.32-2.367-1.203zm50.635 0c-.77.057-1.503.484-1.917 1.202l-6.01 10.405c-.662 1.15-.25 2.643.902 3.305 1.15.662 2.606.25 3.268-.9l6.01-10.406c.662-1.15.287-2.606-.864-3.27-.433-.247-.93-.37-1.39-.337zM3.24 23.84c-.77.055-1.503.483-1.916 1.2-.662 1.15-.287 2.607.864 3.27l10.405 6.01c1.15.66 2.644.286 3.306-.865.663-1.15.25-2.606-.9-3.268l-10.406-6.01c-.432-.25-.892-.37-1.352-.338zm87.787 0c-.462-.034-.922.088-1.354.337l-10.405 6.01c-1.15.662-1.563 2.118-.9 3.268.662 1.15 2.155 1.526 3.305.864l10.405-6.01c1.15-.663 1.526-2.12.864-3.27-.413-.717-1.145-1.145-1.915-1.2zM71.08 34.62c-.075.005-.15.02-.226.037H23.15c-.062-.004-.127-.004-.188 0-.723.047-1.385.418-1.803 1.015L6.733 56.107c-.648.92-.573 2.17.188 3.005l38.09 41.658c.38.68 1.07 1.136 1.846 1.216.78.084 1.545-.216 2.06-.803L87.386 59.11c.76-.834.835-2.084.187-3.004L73.148 35.67c-.465-.684-1.245-1.08-2.066-1.05zm-44.59 4.846h15.59L31.19 52.688l-4.697-13.222zm25.732 0h15.59l-4.696 13.222-10.894-13.222zm-5.07 1.314L58.91 55.092H35.396L47.153 40.78zm-24.756 1.428l4.545 12.885H13.307l9.09-12.885zm49.51 0l9.09 12.885H67.362l4.546-12.885zM14.172 59.9H28.71l11.344 28.323L14.172 59.9zm19.684 0H60.45L47.155 93.07 33.856 59.9zm31.74 0h14.54L54.252 88.224 65.597 59.9z"
        stroke="#F1F1F1" fill="#494949" fill-rule="evenodd"/>
</svg>
