<svg width="48" height="48" viewBox="0 0 48 48" xmlns="http://www.w3.org/2000/svg"><title>document utiles</title><path d="M24 48C10.77 48 0 37.227 0 24 0 10.77 10.773 0 24 0c13.23 0 24 10.773 24 24 0 13.23-10.77 24-24 24zm0-44.654C12.613 3.346 3.346 12.613 3.346 24S12.613 44.654 24 44.654 44.654 35.387 44.654 24 35.387 3.346 24 3.346zm8.15 35.166h-16.3c-2.007 0-3.626-1.618-3.626-3.627v-21.77c0-2.01 1.62-3.574 3.627-3.628h12.784c.446 0 .893.166 1.17.5l5.47 5.47c.337.336.503.726.503 1.173v18.255c0 2.01-1.62 3.628-3.628 3.628zM15.793 12.836c-.112 0-.223.112-.278.278v21.768c0 .112.112.223.278.223H32.15c.166 0 .277-.11.277-.223V17.357l-4.52-4.52H15.793zm12.84 18.418h-9.267c-.948 0-1.673-.725-1.673-1.673 0-.948.725-1.673 1.673-1.673h9.32c.95 0 1.674.725 1.674 1.674.004.95-.778 1.674-1.727 1.674zm0-5.582h-9.267c-.948 0-1.673-.725-1.673-1.673 0-.95.725-1.674 1.673-1.674h9.32c.95 0 1.674.725 1.674 1.673.004.948-.778 1.672-1.727 1.672zm-3.91-5.58H19.31c-.95 0-1.674-.726-1.674-1.675 0-.948.725-1.673 1.674-1.673h5.415c.95 0 1.674.725 1.674 1.673 0 .95-.726 1.674-1.675 1.674z" fill="#CDCDCD" fill-rule="evenodd"/></svg>