<svg width="84" height="112" viewBox="0 0 84 112" xmlns="http://www.w3.org/2000/svg">
    <title>Licence</title>
    <path
        d="M2.28 1c-.84.02-1.265.665-1.28 1.28v107.5c0 .67.61 1.28 1.28 1.28h79.345c.67 0 1.28-.61 1.28-1.28V2.28c0-.67-.61-1.28-1.28-1.28H2.28zm1.28 2.56h76.786V108.5H3.56V3.56zm12.797 10.238c-.705 0-1.28.575-1.28 1.28 0 .704.575 1.28 1.28 1.28h51.19c.706 0 1.28-.576 1.28-1.28 0-.705-.574-1.28-1.28-1.28h-51.19zm0 11.518c-.705 0-1.28.574-1.28 1.28 0 .704.575 1.28 1.28 1.28h51.19c.706 0 1.28-.576 1.28-1.28 0-.706-.574-1.28-1.28-1.28h-51.19zm0 11.517c-.705 0-1.28.575-1.28 1.28 0 .705.575 1.28 1.28 1.28h51.19c.706 0 1.28-.575 1.28-1.28 0-.705-.574-1.28-1.28-1.28h-51.19zM41.953 49.63c-8.47 0-15.358 6.89-15.358 15.358 0 4.525 1.995 8.584 5.12 11.398v20.597c0 .5.294.95.75 1.16.46.205.99.125 1.37-.2l8.118-6.96 8.118 6.96c.38.325.91.405 1.37.2.456-.21.75-.66.75-1.16V76.386c3.125-2.814 5.12-6.874 5.12-11.398 0-8.468-6.89-15.357-15.357-15.357zm0 2.56c7.083 0 12.797 5.715 12.797 12.798 0 4.195-2.01 7.91-5.12 10.24-2.138 1.603-4.788 2.558-7.677 2.558-2.89 0-5.54-.955-7.68-2.56-3.108-2.33-5.118-6.043-5.118-10.238 0-7.083 5.714-12.797 12.798-12.797zm-7.68 26.116c2.26 1.31 4.885 2.04 7.68 2.04 2.794 0 5.42-.73 7.678-2.04v15.876l-6.838-5.88c-.48-.418-1.2-.418-1.68 0l-6.838 5.88V78.306z"
        stroke="#494949" fill="#494949" fill-rule="evenodd"/>
</svg>
