<svg width="26" height="21" viewBox="0 0 26 21" xmlns="http://www.w3.org/2000/svg"><title>print</title><path d="M25.135 3.738h-4.43v-2.59c0-.364-.3-.658-.672-.658H5.773c-.37 0-.672.294-.672.657v2.59H.673c-.37 0-.672.295-.672.657v9.162c0 .362.3.656.672.656H5.22v6.132c0 .362.3.656.673.656h14.02c.372 0 .673-.294.673-.656v-6.13h4.547c.372 0 .673-.294.673-.657l.002-9.163c0-.362-.302-.656-.673-.656zM6.445 1.805h12.917V3.74H6.446V1.804zm12.798 17.883H6.565v-9.37H19.24v9.37h.003zm5.22-6.787h-3.875V9.663c0-.362-.3-.656-.672-.656H5.893c-.37 0-.672.294-.672.656v3.24H1.347V5.05h23.117v7.85zm-15.54 1.192h7.96c.37 0 .672-.294.672-.656 0-.362-.3-.656-.672-.656h-7.96c-.372 0-.673.294-.673.656 0 .362.3.656.672.656zm0 3.134h7.96c.37 0 .672-.293.672-.656 0-.362-.3-.656-.672-.656h-7.96c-.372 0-.673.294-.673.656 0 .363.3.656.672.656z" fill="#000" fill-rule="evenodd"/></svg>