<svg width="28" height="28" viewBox="0 0 28 28" xmlns="http://www.w3.org/2000/svg"><title>Search - Blanc</title><path d="M26.01 27.494l-7.127-7.126c-1.952 1.612-4.404 2.495-6.952 2.495-2.92 0-5.663-1.137-7.728-3.202C2.138 17.597 1 14.853 1 11.93c0-2.92 1.137-5.663 3.203-7.728C6.268 2.137 9.013 1 11.933 1c2.92 0 5.666 1.137 7.73 3.202 3.994 3.993 4.272 10.363.706 14.68l7.125 7.127-1.486 1.484zM11.93 3.1c-2.356 0-4.575.92-6.242 2.587C4.018 7.357 3.1 9.573 3.1 11.932c0 2.36.92 4.576 2.588 6.244 1.67 1.668 3.886 2.587 6.243 2.587 2.36 0 4.58-.92 6.246-2.587 3.443-3.443 3.443-9.045 0-12.49C16.506 4.02 14.29 3.1 11.93 3.1z" stroke="#FFF" fill="#FFF" fill-rule="evenodd"/></svg>