<svg width="25" height="25" viewBox="0 0 25 25" xmlns="http://www.w3.org/2000/svg"><title>time</title><path d="M12.364 0C5.546 0 0 5.546 0 12.364c0 6.818 5.546 12.364 12.364 12.364 6.818 0 12.364-5.546 12.364-12.364C24.728 5.546 19.182 0 12.364 0zm0 22.826c-5.77 0-10.462-4.693-10.462-10.462 0-5.77 4.693-10.462 10.462-10.462 5.77 0 10.462 4.693 10.462 10.462 0 5.77-4.693 10.462-10.462 10.462zm.95-10.866V3.896c0-.526-.424-.95-.95-.95-.525 0-.95.424-.95.95v8.468c0 .26.104.506.29.686l4.666 4.484c.185.177.423.265.66.265.25 0 .498-.1.685-.293.364-.38.352-.98-.026-1.345l-4.375-4.202z" fill-rule="nonzero" fill="#FFF"/></svg>
