<?xml version="1.0" encoding="UTF-8" standalone="no"?>
<svg width="75px" height="75px" viewBox="0 0 75 75" version="1.1" xmlns="http://www.w3.org/2000/svg" xmlns:xlink="http://www.w3.org/1999/xlink">
    <!-- Generator: Sketch 45 (43475) - http://www.bohemiancoding.com/sketch -->
    <title> ICON</title>
    <desc>Created with Sketch.</desc>
    <defs>
        <circle id="path-1" cx="37.5" cy="37.5" r="37.5"></circle>
        <polygon id="path-2" points="0.625215762 0.128325581 33.745 0.128325581 33.745 25.5006829 0.625215762 25.5006829"></polygon>
    </defs>
    <g id="Page-1" stroke="none" stroke-width="1" fill="none" fill-rule="evenodd">
        <g id="5A---calendrier-1---1" transform="translate(-440.000000, -1104.000000)">
            <g id="Formation-1-Copy-4" transform="translate(425.000000, 1087.000000)">
                <g id="-ICON" transform="translate(15.000000, 17.000000)">
                    <g id="Oval-3-Copy-3">
                        <use fill="#FFFFFF" fill-rule="evenodd" xlink:href="#path-1"></use>
                        <circle stroke="#DCDCDC" stroke-width="3" cx="37.5" cy="37.5" r="36"></circle>
                    </g>
                    <g id="Page-1" transform="translate(17.000000, 21.000000)">
                        <g id="Group-3" transform="translate(5.000000, 0.233401)">
                            <mask id="mask-3" fill="white">
                                <use xlink:href="#path-2"></use>
                            </mask>
                            <g id="Clip-2"></g>
                            <path d="M23.41275,2.94200814 C11.90025,2.65688023 6.58025,10.4486942 3.74025,18.091636 C5.68525,5.35676395 12.98525,-0.671294186 23.41275,2.94200814 M8.36275,19.9563221 C10.86775,7.8951593 17.44525,4.16578721 26.87025,6.42662442 C17.42275,7.62769419 11.98025,12.873543 8.36275,19.9563221 M4.13775,23.1129151 C10.02275,24.8791942 15.95525,25.9591477 22.01025,25.3106709 C24.50775,20.468543 27.29775,20.8066593 30.12525,23.2163686 C32.08025,22.3685547 33.80775,20.0572523 33.74525,17.9099616 C33.07025,-4.45870116 6.59525,-6.06853837 1.62025,15.0309267 C0.46275,19.9487523 -0.62475,21.6847523 4.13775,23.1129151" id="Fill-1" fill="#0E7CC8" mask="url(#mask-3)"></path>
                        </g>
                        <path d="M36.047,25.6159849 C31.5595,27.5614151 26.897,28.2351244 22.202,28.073636 C17.6195,27.9121477 12.9945,26.948264 8.482,25.6033686 C4.042,24.2837058 2.952,22.8404035 3.147,20.3020081 C2.8595,20.4180779 -0.298,23.9884849 0.0245,24.4779965 C1.3645,26.5041709 13.282,29.8954267 23.2995,30.8719267 C27.982,30.1527988 35.1945,28.0610198 38.2845,24.3770663 C38.1695,24.4022988 38.0445,24.4275314 37.9145,24.4552872 C37.332,24.9321826 36.702,25.3333802 36.047,25.6159849" id="Fill-4" fill="#0E7CC8"></path>
                    </g>
                </g>
            </g>
        </g>
    </g>
</svg>