<?xml version="1.0" encoding="UTF-8" standalone="no"?>
<svg width="75px" height="75px" viewBox="0 0 75 75" version="1.1" xmlns="http://www.w3.org/2000/svg" xmlns:xlink="http://www.w3.org/1999/xlink">
    <!-- Generator: Sketch 45 (43475) - http://www.bohemiancoding.com/sketch -->
    <title> ICON</title>
    <desc>Created with Sketch.</desc>
    <defs>
        <circle id="path-1" cx="37.5" cy="37.5" r="37.5"></circle>
        <polygon id="path-3" points="0.80065226 0.0879503106 20.0853859 0.0879503106 20.0853859 27.1953491 0.80065226 27.1953491 0.80065226 0.0879503106"></polygon>
        <polygon id="path-5" points="43.9814375 0.998032298 43.9814375 30.4404174 0.000880166601 30.4404174 0.000880166601 0.998032298"></polygon>
    </defs>
    <g id="Page-1" stroke="none" stroke-width="1" fill="none" fill-rule="evenodd">
        <g id="5A---calendrier-1---1" transform="translate(-440.000000, -1554.000000)">
            <g id="Formation-1-Copy-5" transform="translate(425.000000, 1537.000000)">
                <g id="-ICON" transform="translate(15.000000, 17.000000)">
                    <g id="Page-1">
                        <mask id="mask-2" fill="white">
                            <use xlink:href="#path-1"></use>
                        </mask>
                        <use id="Mask" fill="#FFFFFF" xlink:href="#path-1"></use>
                        <g mask="url(#mask-2)">
                            <g transform="translate(16.000000, 20.000000)">
                                <g id="Group-3" transform="translate(11.603070, 0.533456)">
                                    <mask id="mask-4" fill="white">
                                        <use xlink:href="#path-3"></use>
                                    </mask>
                                    <g id="Clip-2"></g>
                                    <path d="M3.49890581,17.2899578 L6.24593268,22.5150012 L6.24593268,25.1087901 L10.4433433,27.1953491 L14.6407539,25.1087901 L14.6407539,22.5150012 L17.3877808,17.2899578 C17.3877808,17.2899578 18.2899195,17.3821814 18.8526684,16.8749516 C19.9085478,15.9123677 20.479999,13.6557714 19.7722117,12.3761689 C19.2790812,11.4741068 18.6815231,11.5231006 18.6815231,11.5231006 C18.6815231,11.5231006 18.6844239,9.58352298 18.6844239,7.13383354 C18.6844239,4.4276472 17.8954151,2.54282733 15.5341904,2.54282733 C14.7306777,0.874156522 12.8074689,0.087373913 10.4433433,0.087373913 C5.23646557,0.087373913 2.19936195,2.95495155 2.19936195,6.77646708 C2.19936195,9.22615652 2.20226272,11.5231006 2.20226272,11.5231006 C2.20226272,11.5231006 1.60470461,11.4741068 1.11447489,12.3761689 C0.40668761,13.6557714 0.975238048,15.9123677 2.03111743,16.8749516 C2.59676711,17.3821814 3.49890581,17.2899578 3.49890581,17.2899578" id="Fill-1" fill="#0E7CC8" mask="url(#mask-4)"></path>
                                </g>
                                <g id="Group-6" transform="translate(0.000000, 25.471344)">
                                    <mask id="mask-6" fill="white">
                                        <use xlink:href="#path-5"></use>
                                    </mask>
                                    <g id="Clip-5"></g>
                                    <path d="M32.9115284,0.998032298 L23.9510575,29.4951255 L24.8212877,7.5632 L22.9996057,5.25472795 L23.9510575,3.83390807 L22.0452532,1.94332422 L20.1423497,3.83390807 L21.0938014,5.25472795 L19.3823486,7.44215652 L20.1423497,29.4951255 L11.4661539,0.998032298 C11.4661539,0.998032298 4.09530362,2.91743602 3.05392807,3.71574658 C2.02415559,4.50252919 0.695604057,16.376318 0.0139236842,24.1029267 C-0.26455,27.2356472 4.00828059,29.6911006 4.00828059,30.4404174 L6.21286393,30.4404174 L34.8144319,30.4404174 L37.184359,30.4404174 C37.184359,29.6334609 44.2883387,26.8436969 43.972155,23.350728 C43.2730701,15.6298832 41.9938316,4.4765913 40.9988683,3.71574658 C39.9574928,2.91743602 32.9115284,0.998032298 32.9115284,0.998032298" id="Fill-4" fill="#0E7CC8" mask="url(#mask-6)"></path>
                                </g>
                            </g>
                        </g>
                    </g>
                    <circle id="Oval-3-Copy-3" stroke="#DCDCDC" stroke-width="3" cx="37.5" cy="37.5" r="36"></circle>
                </g>
            </g>
        </g>
    </g>
</svg>