<?xml version="1.0" encoding="UTF-8" standalone="no"?>
<svg width="75px" height="75px" viewBox="0 0 75 75" version="1.1" xmlns="http://www.w3.org/2000/svg" xmlns:xlink="http://www.w3.org/1999/xlink">
    <!-- Generator: Sketch 45 (43475) - http://www.bohemiancoding.com/sketch -->
    <title> ICON</title>
    <desc>Created with Sketch.</desc>
    <defs>
        <circle id="path-1" cx="37.5" cy="37.5" r="37.5"></circle>
    </defs>
    <g id="Page-1" stroke="none" stroke-width="1" fill="none" fill-rule="evenodd">
        <g id="5A---calendrier-1---1" transform="translate(-440.000000, -1254.000000)">
            <g id="Formation-1-Copy-4" transform="translate(425.000000, 1237.000000)">
                <g id="-ICON" transform="translate(15.000000, 17.000000)">
                    <g id="Oval-3-Copy-3">
                        <use fill="#FFFFFF" fill-rule="evenodd" xlink:href="#path-1"></use>
                        <circle stroke="#DCDCDC" stroke-width="3" cx="37.5" cy="37.5" r="36"></circle>
                    </g>
                    <g id="icon---Gestion-de-projet" transform="translate(25.000000, 16.000000)" fill="#0E7CC8">
                        <path d="M9.8725,24.3551 L12.1125,18.6468333 C12.255,18.6571 12.3925,18.6699333 12.535,18.6699333 C12.68,18.6699333 12.8175,18.6571 12.9575,18.6468333 L15.2,24.3551 L9.8725,24.3551 Z M12.535,7.97976667 C14.4875,7.97976667 16.075,9.61216667 16.075,11.6141667 C16.075,13.6187333 14.4875,15.2485667 12.535,15.2485667 C10.585,15.2485667 8.995,13.6187333 8.995,11.6141667 C8.995,9.61216667 10.585,7.97976667 12.535,7.97976667 L12.535,7.97976667 Z M24.575,37.2526 L21.0825,27.7046 L24.2725,27.6892 C24.8225,27.6892 24.4525,25.9438667 24.4525,25.3792 C24.4525,24.8145333 24.005,24.3551 23.455,24.3551 L19.51,24.3551 L16.705,17.2120667 C18.345,15.9210333 19.4075,13.8959333 19.4075,11.6141667 C19.4075,8.30316667 17.17,5.52346667 14.1675,4.76886667 L14.1675,1.67346667 C14.1675,0.749466667 13.4375,0 12.535,0 C11.635,0 10.905,0.749466667 10.905,1.67346667 L10.905,4.76886667 C7.9025,5.52346667 5.665,8.30316667 5.665,11.6141667 C5.665,13.8959333 6.7275,15.9210333 8.3675,17.2120667 L5.5625,24.3551 L0.9975,24.3551 C0.445,24.3551 0,24.8145333 0,25.3792 C0,25.9438667 0.1925,27.7302667 0.745,27.7302667 L4.24,27.7046 L0.4975,37.2526 L1.9125,40.5328 L2.235,40.5328 L2.1875,43.3407333 C2.1775,43.8746 2.2875,43.8925667 2.4325,43.3792333 L3.2275,40.5328 L3.52,40.5328 L8.55,27.7046 L16.7725,27.7046 L21.55,40.5328 L21.845,40.5328 L22.64,43.3792333 C22.785,43.8925667 22.895,43.8746 22.885,43.3407333 L22.8375,40.5328 L23.1575,40.5328 L24.575,37.2526 Z" id="Fill-1"></path>
                    </g>
                </g>
            </g>
        </g>
    </g>
</svg>